<svg xmlns="http://www.w3.org/2000/svg" style="display:none">
  <symbol id="animated-scene-toggle-light" viewBox="0 0 72 36">
    <rect width="72" height="36" rx="18" fill="url(#animated-scene-toggle-light-sky)" />
    <circle cx="18" cy="12" r="6" fill="#FFD166" />
    <g opacity="0.98">
      <circle cx="44" cy="13" r="5" fill="#ffffff" />
      <circle cx="49" cy="13" r="4" fill="#ffffff" />
      <circle cx="40" cy="15" r="4" fill="#ffffff" />
      <rect x="40" y="13" width="13" height="6" rx="3" fill="#ffffff" />
    </g>
    <path d="M0 29C8 22 14 20 22 24C27 18 36 18 42 24C49 20 58 20 72 28V36H0V29Z" fill="#5DBB7A" />
    <path d="M0 31C8 26 16 25 23 28C28 23 37 23 44 29C50 26 60 26 72 31V36H0V31Z" fill="#2F7D52" />
    <defs>
      <linearGradient id="animated-scene-toggle-light-sky" x1="36" y1="0" x2="36" y2="36" gradientUnits="userSpaceOnUse">
        <stop stop-color="#7DD3FC" />
        <stop offset="1" stop-color="#D9F2FF" />
      </linearGradient>
    </defs>
  </symbol>

  <symbol id="animated-scene-toggle-dark" viewBox="0 0 72 36">
    <rect width="72" height="36" rx="18" fill="url(#animated-scene-toggle-dark-sky)" />
    <circle cx="54" cy="11" r="5.5" fill="#F8FAFC" />
    <circle cx="56.5" cy="10.5" r="5.5" fill="#334155" />
    <circle cx="20" cy="10" r="1" fill="#FFF7CC" />
    <circle cx="27" cy="16" r="1" fill="#FFF7CC" />
    <circle cx="44" cy="7" r="1" fill="#FFF7CC" />
    <circle cx="49" cy="18" r="1" fill="#FFF7CC" />
    <path d="M0 29C8 22 14 20 22 24C27 18 36 18 42 24C49 20 58 20 72 28V36H0V29Z" fill="#4B5563" />
    <path d="M0 31C8 26 16 25 23 28C28 23 37 23 44 29C50 26 60 26 72 31V36H0V31Z" fill="#374151" />
    <defs>
      <linearGradient id="animated-scene-toggle-dark-sky" x1="36" y1="0" x2="36" y2="36" gradientUnits="userSpaceOnUse">
        <stop stop-color="#0F172A" />
        <stop offset="0.6" stop-color="#1E293B" />
        <stop offset="1" stop-color="#334155" />
      </linearGradient>
    </defs>
  </symbol>
</svg>
