<svg width="72" height="36" viewBox="0 0 72 36" fill="none" xmlns="http://www.w3.org/2000/svg">
  <rect width="72" height="36" rx="18" fill="url(#sky-light)"/>
  <circle cx="18" cy="12" r="6" fill="#FFD166"/>
  <g opacity="0.98">
    <circle cx="44" cy="13" r="5" fill="white"/>
    <circle cx="49" cy="13" r="4" fill="white"/>
    <circle cx="40" cy="15" r="4" fill="white"/>
    <rect x="40" y="13" width="13" height="6" rx="3" fill="white"/>
  </g>
  <path d="M0 29C8 22 14 20 22 24C27 18 36 18 42 24C49 20 58 20 72 28V36H0V29Z" fill="#5DBB7A"/>
  <path d="M0 31C8 26 16 25 23 28C28 23 37 23 44 29C50 26 60 26 72 31V36H0V31Z" fill="#2F7D52"/>
  <defs>
    <linearGradient id="sky-light" x1="36" y1="0" x2="36" y2="36" gradientUnits="userSpaceOnUse">
      <stop stop-color="#7DD3FC"/>
      <stop offset="1" stop-color="#D9F2FF"/>
    </linearGradient>
  </defs>
</svg>
